<?xml version="1.0" standalone="no"?>
<!DOCTYPE svg PUBLIC "-//W3C//DTD SVG 20010904//EN"
 "http://www.w3.org/TR/2001/REC-SVG-20010904/DTD/svg10.dtd">
<svg version="1.0" xmlns="http://www.w3.org/2000/svg"
 width="192.000000pt" height="183.000000pt" viewBox="0 0 192.000000 183.000000"
 preserveAspectRatio="xMidYMid meet">

<g transform="translate(0.000000,183.000000) scale(0.100000,-0.100000)"
fill="#000000" stroke="none">
<path d="M865 1739 c-135 -11 -240 -39 -360 -99 -203 -101 -340 -273 -401
-505 -27 -99 -27 -370 -1 -470 84 -321 335 -537 687 -590 436 -67 826 89 976
391 20 39 36 87 37 105 l2 34 -119 0 -118 0 -22 -60 c-83 -226 -312 -357 -596
-341 -109 6 -180 25 -265 69 -132 70 -236 222 -275 402 -19 89 -27 220 -12
213 4 -1 45 -22 92 -45 167 -82 380 -115 606 -94 224 21 377 82 504 198 72 66
133 168 163 269 15 50 15 50 -20 119 -118 236 -354 382 -643 401 -47 3 -96 6
-110 8 -14 1 -70 -1 -125 -5z m281 -155 c133 -34 249 -130 318 -262 44 -84 43
-100 -3 -199 -55 -116 -146 -194 -277 -240 -69 -23 -95 -27 -204 -27 -134 0
-210 15 -301 60 -101 50 -195 165 -229 280 -11 38 -10 45 23 111 103 204 300
312 540 297 43 -3 103 -12 133 -20z"/>
<path d="M906 1405 c-134 -48 -168 -212 -65 -313 77 -75 217 -66 282 19 60 80
55 181 -14 250 -56 56 -127 71 -203 44z m95 -135 c44 -24 7 -90 -41 -75 -34
11 -44 41 -20 65 23 23 33 24 61 10z"/>
</g>
</svg>
