<svg width="256" height="256" viewBox="0 0 256 256" fill="none" xmlns="http://www.w3.org/2000/svg">
<g clip-path="url(#clip0_145_440)">
<rect width="256" height="256" rx="16" fill="white"/>
<path d="M115.333 18.1334C97.3335 19.6001 83.3335 23.3334 67.3335 31.3334C40.2668 44.8001 22.0001 67.7334 13.8668 98.6667C10.2668 111.867 10.2668 148 13.7335 161.333C24.9335 204.133 58.4001 232.933 105.333 240C163.467 248.933 215.467 228.133 235.467 187.867C238.133 182.667 240.267 176.267 240.4 173.867L240.667 169.333H224.8H209.067L206.133 177.333C195.067 207.467 164.533 224.933 126.667 222.8C112.133 222 102.667 219.467 91.3335 213.6C73.7335 204.267 59.8668 184 54.6668 160C52.1335 148.133 51.0668 130.667 53.0668 131.6C53.6001 131.733 59.0668 134.533 65.3335 137.6C87.6001 148.533 116 152.933 146.133 150.133C176 147.333 196.4 139.2 213.333 123.733C222.933 114.933 231.067 101.333 235.067 87.8667C237.067 81.2001 237.067 81.2001 232.4 72.0001C216.667 40.5334 185.2 21.0667 146.667 18.5334C140.4 18.1334 133.867 17.7334 132 17.4667C130.133 17.3334 122.667 17.6001 115.333 18.1334ZM152.8 38.8001C170.533 43.3334 186 56.1334 195.2 73.7334C201.067 84.9334 200.933 87.0667 194.8 100.267C187.467 115.733 175.333 126.133 157.867 132.267C148.667 135.333 145.2 135.867 130.667 135.867C112.8 135.867 102.667 133.867 90.5335 127.867C77.0668 121.2 64.5335 105.867 60.0001 90.5334C58.5335 85.4667 58.6668 84.5334 63.0668 75.7334C76.8001 48.5334 103.067 34.1334 135.067 36.1334C140.8 36.5334 148.8 37.7334 152.8 38.8001Z" fill="black"/>
<path d="M120.8 62.6667C102.934 69.0667 98.4002 90.9334 112.134 104.4C122.4 114.4 141.067 113.2 149.734 101.867C157.734 91.2001 157.067 77.7334 147.867 68.5334C140.4 61.0667 130.934 59.0667 120.8 62.6667ZM133.467 80.6667C139.334 83.8668 134.4 92.6668 128 90.6668C123.467 89.2001 122.134 85.2001 125.334 82.0001C128.4 78.9334 129.734 78.8001 133.467 80.6667Z" fill="black"/>
</g>
<defs>
<clipPath id="clip0_145_440">
<rect width="256" height="256" fill="white"/>
</clipPath>
</defs>
</svg>
